<?xml version="1.0" encoding="UTF-8" standalone="no"?>
<!-- Created with Inkscape (http://www.inkscape.org/) -->
<svg
   xmlns:svg="http://www.w3.org/2000/svg"
   xmlns="http://www.w3.org/2000/svg"
   version="1.0"
   width="800"
   height="106.7712"
   id="svg2">
  <defs
     id="defs7" />
  <path
     d="M 2.483502e-11,53.385602 C -6.4876603e-06,41.031188 1.271077,31.088218 3.8132569,23.556665 C 6.3554158,16.025273 10.133031,10.216299 15.146114,6.129722 C 20.159156,2.043344 26.467061,0.000106 34.069849,0 C 39.676836,0.000106 44.594865,1.128638 48.823948,3.385602 C 53.052921,5.64277 56.545434,8.897696 59.301496,13.150392 C 62.057426,17.40327 64.219458,22.582644 65.787597,28.688524 C 67.355592,34.794558 68.139626,43.026908 68.139699,53.385602 C 68.139626,65.645085 66.88042,75.540537 64.36208,83.071989 C 61.8436,90.603482 58.077862,96.424337 53.06486,100.53457 C 48.051738,104.64481 41.720074,106.69993 34.069849,106.69993 C 23.996168,106.69993 16.084558,103.08862 10.334996,95.866001 C 3.4449883,87.170367 -6.4876603e-06,73.010248 2.483502e-11,53.385602 L 2.483502e-11,53.385602 z M 13.186029,53.385602 C 13.186011,70.539354 15.193611,81.955356 19.208837,87.633642 C 23.224013,93.311961 28.177679,96.151113 34.069849,96.151105 C 39.961939,96.151113 44.915604,93.300082 48.930862,87.598004 C 52.946007,81.89596 54.953609,70.491837 54.95367,53.385602 C 54.953609,36.184436 52.946007,24.756554 48.930862,19.101925 C 44.915604,13.447466 39.914422,10.620195 33.927297,10.620101 C 28.035128,10.620195 23.330927,13.114846 19.814681,18.104062 C 15.395559,24.471451 13.186011,36.231953 13.186029,53.385602 L 13.186029,53.385602 z M 129.57947,104.91803 L 116.74982,104.91803 L 116.74982,23.164648 C 113.66116,26.110793 109.61032,29.056859 104.59729,32.00285 C 99.584198,34.948989 95.081946,37.158538 91.090519,38.631503 L 91.090519,26.229508 C 98.265597,22.855867 104.53786,18.76939 109.90734,13.970064 C 115.27675,9.17092 119.07812,4.514237 121.31147,0 L 129.57947,0 L 129.57947,104.91803 z M 229.93585,92.587313 L 229.93585,104.91803 L 160.86956,104.91803 C 160.77453,101.82942 161.27345,98.859592 162.36635,96.008553 C 164.12448,91.304362 166.93988,86.671436 170.81254,82.109765 C 174.68519,77.548139 180.28033,72.273732 187.598,66.286529 C 198.95458,56.973201 206.6286,49.596158 210.6201,44.155381 C 214.61149,38.714726 216.60721,33.57099 216.60728,28.724163 C 216.60721,23.6399 214.78967,19.351475 211.15467,15.858874 C 207.51956,12.366451 202.77972,10.620195 196.93514,10.620101 C 190.75787,10.620195 185.81608,12.473365 182.10976,16.179615 C 178.40341,19.886044 176.52647,25.017899 176.47898,31.575195 L 163.29294,30.220954 C 164.19577,20.384973 167.59324,12.889139 173.48539,7.733428 C 179.3775,2.577913 187.28912,0.000106 197.22024,0 C 207.24633,0.000106 215.18169,2.77986 221.02638,8.339274 C 226.87093,13.898879 229.79322,20.788871 229.7933,29.009266 C 229.79322,33.190853 228.93792,37.30109 227.22737,41.339985 C 225.51669,45.379009 222.67753,49.631797 218.7099,54.09836 C 214.74217,58.565026 208.14915,64.694742 198.93087,72.487527 C 191.23303,78.949895 186.29125,83.333355 184.10548,85.637919 C 181.91967,87.942521 180.11402,90.258983 178.68853,92.587313 L 229.93585,92.587313 z M 243.83465,77.334283 L 256.66429,75.623664 C 258.1373,82.893821 260.64383,88.132589 264.18389,91.339986 C 267.72389,94.547408 272.03608,96.151113 277.12046,96.151105 C 283.1551,96.151113 288.25132,94.060358 292.40913,89.878831 C 296.56683,85.697334 298.64569,80.517962 298.64576,74.340698 C 298.64569,68.448599 296.72125,63.589967 292.87242,59.76479 C 289.02347,55.939701 284.12921,54.027135 278.1896,54.027085 C 275.76617,54.027135 272.74883,54.502308 269.13756,55.452601 L 270.56308,44.19102 C 271.41836,44.286114 272.10736,44.333632 272.63008,44.33357 C 278.09452,44.333632 283.01255,42.908115 287.38418,40.057021 C 291.75571,37.206055 293.94151,32.810716 293.94155,26.870991 C 293.94151,22.166868 292.34967,18.27046 289.16607,15.181754 C 285.98236,12.093227 281.87214,10.548918 276.83536,10.548824 C 271.84601,10.548918 267.68826,12.116985 264.36209,15.253029 C 261.03585,18.389253 258.89758,23.093454 257.94726,29.365645 L 245.1176,27.084819 C 246.68566,18.484288 250.24946,11.820003 255.80898,7.091947 C 261.36848,2.364085 268.28222,0.000106 276.55024,0 C 282.25227,0.000106 287.50292,1.223672 292.30221,3.670706 C 297.1014,6.117942 300.7721,9.456023 303.31433,13.684961 C 305.85643,17.914082 307.12751,22.404453 307.12758,27.156094 C 307.12751,31.670303 305.91583,35.78054 303.49251,39.486814 C 301.06907,43.193219 297.48153,46.139284 292.72987,48.325018 C 298.90705,49.750589 303.70628,52.708534 307.12758,57.198859 C 310.54875,61.689281 312.25937,67.308187 312.25945,74.055595 C 312.25937,83.178924 308.93317,90.912345 302.28082,97.25588 C 295.62835,103.59943 287.21781,106.7712 277.04918,106.7712 C 267.87833,106.7712 260.26371,104.03896 254.20528,98.574483 C 248.14682,93.110014 244.68995,86.029955 243.83465,77.334283 L 243.83465,77.334283 z M 366.14397,104.91803 L 366.14397,79.900213 L 320.81254,79.900213 L 320.81254,68.139701 L 368.49609,0.427655 L 378.97363,0.427655 L 378.97363,68.139701 L 393.08624,68.139701 L 393.08624,79.900213 L 378.97363,79.900213 L 378.97363,104.91803 L 366.14397,104.91803 z M 366.14397,68.139701 L 366.14397,21.026372 L 333.42836,68.139701 L 366.14397,68.139701 z M 406.27227,77.548111 L 419.74341,76.407698 C 420.74125,82.965096 423.05771,87.895004 426.69279,91.197433 C 430.32784,94.499892 434.7113,96.151113 439.8432,96.151105 C 446.02039,96.151113 451.24727,93.822772 455.52387,89.166073 C 459.80038,84.509405 461.93864,78.332172 461.9387,70.634355 C 461.93864,63.316744 459.88353,57.543407 455.77334,53.314327 C 451.66305,49.085349 446.28173,46.970835 439.62937,46.970777 C 435.49533,46.970835 431.76524,47.909298 428.43905,49.786173 C 425.11283,51.663156 422.49938,54.098412 420.59872,57.091945 L 408.5531,55.523877 L 418.67427,1.853172 L 470.63436,1.853172 L 470.63436,14.112616 L 428.93799,14.112616 L 423.3072,42.195296 C 429.57944,37.823778 436.16058,35.637988 443.0506,35.637918 C 452.17386,35.637988 459.87164,38.79788 466.14399,45.117605 C 472.41618,51.437449 475.55231,59.562887 475.55239,69.493942 C 475.55231,78.949895 472.79631,87.122849 467.28439,94.012829 C 460.5844,102.4709 451.43734,106.69993 439.8432,106.69993 C 430.33972,106.69993 422.58254,104.03896 416.57163,98.717035 C 410.56069,93.395117 407.12757,86.338816 406.27227,77.548111 L 406.27227,77.548111 z M 554.09836,26.015681 L 541.33999,27.013542 C 540.19952,21.9768 538.58394,18.317977 536.49323,16.037063 C 533.02443,12.37833 528.74788,10.548918 523.66357,10.548824 C 519.57706,10.548918 515.98952,11.689331 512.90093,13.970064 C 508.86194,16.916221 505.67828,21.216524 503.34997,26.870991 C 501.0216,32.525613 499.80991,40.579775 499.7149,51.0335 C 502.80349,46.329352 506.58111,42.83684 511.04775,40.555952 C 515.51434,38.275191 520.19479,37.13478 525.0891,37.134712 C 533.64214,37.13478 540.92416,40.282793 546.93514,46.57876 C 552.946,52.874844 555.95145,61.012161 555.95153,70.990734 C 555.95145,77.548139 554.53782,83.642216 551.71062,89.272986 C 548.88328,94.903788 544.99875,99.215972 540.05701,102.20955 C 535.11518,105.20314 529.50815,106.69993 523.23592,106.69993 C 512.54451,106.69993 503.82511,102.76788 497.07769,94.903778 C 490.33024,87.039695 486.95651,74.079384 486.95653,56.022809 C 486.95651,35.828056 490.68662,21.145249 498.14683,11.97434 C 504.65667,3.991548 513.42359,0.000106 524.44761,0 C 532.66804,0.000106 539.40361,2.304689 544.65432,6.913756 C 549.9049,11.523021 553.05292,17.890322 554.09836,26.015681 L 554.09836,26.015681 z M 501.71063,71.06201 C 501.71059,75.481141 502.64907,79.710169 504.52602,83.749108 C 506.40293,87.78809 509.02825,90.864827 512.40199,92.979329 C 515.77568,95.093856 519.31572,96.151113 523.02209,96.151105 C 528.43901,96.151113 533.0957,93.965323 536.99217,89.593728 C 540.88851,85.222162 542.83671,79.282516 542.83678,71.774769 C 542.83671,64.552191 540.91227,58.862008 537.06343,54.704205 C 533.21448,50.546502 528.36773,48.467625 522.52317,48.467569 C 516.72603,48.467625 511.80799,50.546502 507.76907,54.704205 C 503.73008,58.862008 501.71059,64.314604 501.71063,71.06201 L 501.71063,71.06201 z M 569.63649,14.112616 L 569.63649,1.781896 L 637.27726,1.781896 L 637.27726,11.760514 C 630.62479,18.840666 624.03178,28.249066 617.49822,39.985744 C 610.96456,51.722552 605.91586,63.791915 602.35211,76.19387 C 599.78613,84.937059 598.14679,94.511771 597.43407,104.91803 L 584.24804,104.91803 C 584.39058,96.697561 586.00616,86.766471 589.0948,75.124732 C 592.18339,63.483055 596.61437,52.257121 602.38774,41.446899 C 608.16103,30.636805 614.30263,21.525387 620.81254,14.112616 L 569.63649,14.112616 z M 669.77904,48.253743 C 664.45709,46.305594 660.51317,43.525839 657.94725,39.914469 C 655.38131,36.303229 654.09835,31.979166 654.09835,26.942266 C 654.09835,19.339596 656.83059,12.948536 662.29509,7.769066 C 667.75954,2.589792 675.02967,0.000106 684.10549,0 C 693.22874,0.000106 700.57014,2.649188 706.12972,7.947255 C 711.68918,13.245517 714.46892,19.695975 714.46899,27.298646 C 714.46892,32.145476 713.19784,36.362625 710.65574,39.950107 C 708.11351,43.537719 704.25273,46.305594 699.07342,48.253743 C 705.48818,50.344555 710.37057,53.718274 713.7206,58.374911 C 717.07048,63.031641 718.74548,68.59115 718.74554,75.053457 C 718.74548,83.986715 715.58558,91.49443 709.26586,97.576622 C 702.94602,103.65883 694.63051,106.69993 684.31932,106.69993 C 674.00805,106.69993 665.69254,103.64695 659.37278,97.540983 C 653.05298,91.435033 649.89308,83.820407 649.89308,74.697078 C 649.89308,67.902151 651.61558,62.211969 655.06059,57.626514 C 658.50557,53.041155 663.41172,49.9169 669.77904,48.253743 L 669.77904,48.253743 z M 667.21311,26.514611 C 667.21309,31.456477 668.80491,35.495436 671.9886,38.631503 C 675.17222,41.767704 679.3062,43.335771 684.39059,43.335709 C 689.33234,43.335771 693.38318,41.779583 696.54312,38.667142 C 699.70297,35.554832 701.28291,31.74158 701.28296,27.227369 C 701.28291,22.523248 699.65545,18.567442 696.40057,15.359943 C 693.14559,12.152623 689.09474,10.548918 684.24804,10.548824 C 679.35373,10.548918 675.29101,12.116985 672.05987,15.253029 C 668.82867,18.389253 667.21309,22.14311 667.21311,26.514611 L 667.21311,26.514611 z M 663.07911,74.768354 C 663.07909,78.427207 663.94629,81.967237 665.68069,85.388452 C 667.41504,88.809709 669.99284,91.458791 673.41411,93.335709 C 676.83532,95.212649 680.51789,96.151113 684.46187,96.151105 C 690.59155,96.151113 695.65212,94.179151 699.64362,90.235211 C 703.63501,86.291298 705.63073,81.278236 705.6308,75.196009 C 705.63073,69.018805 703.57561,63.910708 699.46544,59.871703 C 695.35513,55.832788 690.2114,53.813308 684.03422,53.813257 C 677.99949,53.813308 672.99831,55.80903 669.03065,59.800427 C 665.06295,63.791915 663.07909,68.781219 663.07911,74.768354 L 663.07911,74.768354 z M 733.21454,80.755524 L 745.54526,79.61511 C 746.59062,85.412231 748.58634,89.617502 751.53244,92.230933 C 754.47846,94.844391 758.25608,96.151113 762.86529,96.151105 C 766.80918,96.151113 770.26605,95.248287 773.23592,93.442623 C 776.2057,91.636982 778.64095,89.225485 780.5417,86.208124 C 782.44233,83.190803 784.03415,79.116206 785.31717,73.984318 C 786.60008,68.852495 787.24156,63.625605 787.24163,58.303636 C 787.24156,57.733475 787.2178,56.878166 787.17034,55.737704 C 784.60435,59.824231 781.09996,63.138554 776.65716,65.680683 C 772.21425,68.222892 767.40315,69.493978 762.2238,69.493942 C 753.57563,69.493978 746.258,66.357844 740.27085,60.08553 C 734.28368,53.813308 731.29008,45.545319 731.2901,35.28154 C 731.29008,24.685279 734.41434,16.155945 740.66287,9.693513 C 746.91135,3.231273 754.73982,0.000106 764.14826,0 C 770.94317,0.000106 777.15603,1.829516 782.78689,5.488239 C 788.41762,9.147161 792.69415,14.362171 795.61653,21.133286 C 798.53876,27.904567 799.99992,37.704986 800,50.534569 C 799.99992,63.88695 798.55065,74.518918 795.65218,82.430506 C 792.75355,90.342139 788.44138,96.364941 782.71561,100.49893 C 776.98974,104.63293 770.27794,106.69993 762.58018,106.69993 C 754.40719,106.69993 747.73102,104.43098 742.55168,99.893085 C 737.37228,95.355201 734.25991,88.976019 733.21454,80.755524 L 733.21454,80.755524 z M 785.74484,34.640057 C 785.74477,27.274965 783.78468,21.430352 779.86458,17.106201 C 775.94435,12.782225 771.22827,10.620195 765.71632,10.620101 C 760.01422,10.620195 755.04868,12.948536 750.81967,17.605132 C 746.59062,22.261903 744.4761,28.296584 744.47612,35.709195 C 744.4761,42.361669 746.4837,47.766748 750.49893,51.924447 C 754.51411,56.082254 759.46777,58.16113 765.35995,58.161083 C 771.29955,58.16113 776.18194,56.082254 780.00713,51.924447 C 783.8322,47.766748 785.74477,42.005289 785.74484,34.640057 L 785.74484,34.640057 z"
     id="text4"
     style="font-size:90px;font-family:'Bitstream Vera Sans,Arial,Helvetica,sans-serif'" />
</svg>
